<svg width="36" height="36" viewBox="0 0 36 36" fill="none" xmlns="http://www.w3.org/2000/svg">
<path fill-rule="evenodd" clip-rule="evenodd" d="M17.9999 21.183L25.9544 29.1375C26.3765 29.5596 26.949 29.7967 27.5459 29.7967C28.1428 29.7967 28.7153 29.5596 29.1374 29.1375C29.5595 28.7154 29.7966 28.1429 29.7966 27.546C29.7966 26.9491 29.5595 26.3766 29.1374 25.9545L21.1799 18L29.1359 10.0455C29.3448 9.83651 29.5105 9.58842 29.6235 9.31538C29.7365 9.04235 29.7947 8.74973 29.7946 8.45423C29.7945 8.15873 29.7362 7.86614 29.6231 7.59316C29.51 7.32018 29.3441 7.07216 29.1351 6.86326C28.9261 6.65436 28.678 6.48867 28.405 6.37565C28.132 6.26264 27.8394 6.2045 27.5439 6.20457C27.2484 6.20464 26.9558 6.26291 26.6828 6.37606C26.4098 6.48921 26.1618 6.65501 25.9529 6.86401L17.9999 14.8185L10.0454 6.86401C9.83794 6.64902 9.58975 6.47749 9.31529 6.35945C9.04084 6.2414 8.74563 6.17919 8.44687 6.17646C8.14812 6.17372 7.85182 6.23051 7.57525 6.34351C7.29868 6.45651 7.04739 6.62346 6.83603 6.83462C6.62467 7.04578 6.45748 7.29692 6.34422 7.57338C6.23096 7.84984 6.17389 8.14609 6.17635 8.44484C6.1788 8.7436 6.24073 9.03887 6.35852 9.31343C6.47631 9.588 6.6476 9.83636 6.86239 10.044L14.8199 18L6.8639 25.956C6.6491 26.1637 6.47781 26.412 6.36002 26.6866C6.24223 26.9612 6.1803 27.2564 6.17785 27.5552C6.17539 27.8539 6.23246 28.1502 6.34572 28.4266C6.45898 28.7031 6.62617 28.9542 6.83753 29.1654C7.04889 29.3766 7.30018 29.5435 7.57675 29.6565C7.85332 29.7695 8.14962 29.8263 8.44837 29.8236C8.74712 29.8208 9.04234 29.7586 9.31679 29.6406C9.59125 29.5225 9.83944 29.351 10.0469 29.136L17.9999 21.183Z" fill="#299035"/>
</svg>
